<?xml version="1.0" standalone="no"?>
<!DOCTYPE svg PUBLIC "-//W3C//DTD SVG 20010904//EN"
 "http://www.w3.org/TR/2001/REC-SVG-20010904/DTD/svg10.dtd">
<svg version="1.0" xmlns="http://www.w3.org/2000/svg"
 width="512.000000pt" height="512.000000pt" viewBox="0 0 512.000000 512.000000"
 preserveAspectRatio="xMidYMid meet">

<g transform="translate(0.000000,512.000000) scale(0.100000,-0.100000)"
fill="#000000" stroke="none">
<path d="M1395 4584 c-252 -25 -395 -48 -563 -89 -57 -14 -111 -25 -121 -25
-9 0 -41 -12 -69 -26 -37 -19 -59 -38 -77 -68 l-25 -43 0 -680 0 -680 -46 -18
c-102 -39 -250 -224 -359 -450 -60 -122 -87 -199 -112 -319 -24 -110 -24 -400
0 -541 20 -112 74 -323 110 -430 l24 -70 -23 -35 c-23 -34 -24 -39 -24 -260 0
-206 2 -228 20 -257 39 -64 30 -63 552 -63 457 0 474 1 506 20 56 34 62 64 62
295 0 218 -6 251 -49 290 -12 10 -43 22 -69 25 -47 5 -47 5 -53 48 -3 23 -3
44 -1 47 7 6 2957 7 2963 1 3 -3 3 -23 1 -44 -4 -39 -5 -40 -47 -47 -24 -3
-56 -16 -71 -27 -48 -39 -54 -69 -54 -295 0 -236 7 -264 70 -295 32 -16 77
-18 503 -18 517 0 508 -1 547 63 18 29 20 51 20 258 0 220 -1 227 -23 261
l-24 34 19 54 c37 106 89 306 110 425 17 93 22 160 22 300 1 245 -25 363 -125
573 -103 218 -249 404 -356 453 l-53 24 0 679 0 679 -24 41 c-13 23 -42 51
-64 63 -67 38 -444 115 -674 138 -63 7 -68 6 -92 -18 -33 -33 -34 -76 -3 -105
17 -16 44 -23 127 -32 170 -19 532 -92 570 -115 7 -4 10 -371 10 -1045 l0
-1040 -90 59 c-150 99 -240 102 -332 10 -60 -60 -82 -128 -76 -238 4 -87 34
-163 89 -226 l34 -38 -35 6 c-182 34 -258 41 -470 41 -190 0 -245 -3 -353 -23
-110 -19 -293 -64 -349 -86 -17 -7 -18 59 -18 1303 l0 1310 108 26 c133 32
266 53 400 64 75 7 107 14 122 27 25 22 26 72 3 104 -16 23 -18 24 -132 18
-141 -8 -317 -36 -475 -77 -109 -28 -130 -30 -297 -30 -173 0 -183 1 -313 35
-205 54 -368 76 -606 80 -113 1 -223 1 -245 -1z m400 -154 c137 -12 301 -40
416 -71 l79 -21 0 -599 c0 -586 0 -599 20 -619 28 -28 75 -26 105 5 l25 24 0
586 0 585 120 0 120 0 0 -1320 0 -1320 -120 0 -120 0 0 584 c0 575 0 584 -21
610 -26 33 -79 36 -109 6 -20 -20 -20 -33 -20 -591 l0 -571 -22 6 c-209 59
-338 82 -545 98 -167 13 -387 2 -557 -28 -48 -8 -91 -13 -93 -10 -3 3 9 22 27
43 54 61 84 137 88 225 9 177 -82 299 -223 299 -62 0 -95 -13 -195 -79 l-75
-50 -3 1036 c-1 570 2 1040 6 1044 11 11 172 50 337 81 111 22 192 32 385 50
80 8 263 6 375 -3z m-1255 -1961 c0 -390 1 -394 92 -422 32 -11 94 16 199 84
62 40 116 69 132 69 48 0 77 -49 77 -128 -1 -75 -32 -128 -135 -228 -114 -111
-119 -127 -80 -235 58 -159 105 -351 105 -431 0 -17 -21 -18 -309 -18 l-310 0
-41 126 c-124 382 -149 679 -80 949 24 93 117 289 188 393 49 74 137 172 153
172 5 0 9 -149 9 -331z m4106 281 c67 -69 135 -173 204 -315 68 -138 96 -235
112 -388 21 -196 -17 -465 -105 -740 l-43 -132 -313 -3 -313 -2 7 52 c14 106
37 205 71 303 73 206 73 208 -51 319 -107 97 -139 158 -133 245 9 129 54 141
192 52 125 -80 148 -91 199 -91 45 0 70 18 96 67 7 15 11 127 11 352 0 182 4
331 9 331 5 0 30 -23 57 -50z m-888 -1070 c111 -12 353 -58 365 -69 4 -4 -4
-43 -18 -86 -14 -43 -25 -86 -25 -96 0 -18 -21 -19 -625 -19 l-625 0 0 75 0
74 109 35 c265 84 553 114 819 86z m-1879 -25 c109 -16 231 -42 344 -76 l67
-20 0 -74 0 -75 -623 0 -622 0 -23 83 c-13 45 -25 89 -28 98 -4 13 15 19 108
37 103 20 207 35 328 46 79 7 341 -4 449 -19z m801 -185 l0 -60 -120 0 -120 0
0 60 0 60 120 0 120 0 0 -60z m-1580 -625 l0 -165 -420 0 -420 0 0 165 0 165
420 0 420 0 0 -165z m3760 0 l0 -165 -420 0 -420 0 0 165 0 165 420 0 420 0 0
-165z"/>
<path d="M1058 4020 c-45 -13 -87 -49 -111 -93 -20 -38 -22 -56 -22 -197 0
-175 6 -196 78 -254 l39 -31 427 0 427 0 36 24 c19 13 46 40 59 59 22 33 24
46 27 181 4 161 -4 202 -45 252 -57 68 -64 69 -498 68 -214 0 -402 -4 -417 -9z
m796 -156 c13 -12 16 -39 16 -133 0 -78 -4 -121 -12 -129 -9 -9 -109 -12 -390
-12 l-378 0 -10 26 c-17 43 -12 216 6 242 l15 22 369 0 c322 0 371 -2 384 -16z"/>
<path d="M1000 3150 c-40 -40 -16 -111 42 -125 13 -3 218 -4 456 -3 l434 3 19
24 c25 30 24 76 -1 101 -19 19 -33 20 -475 20 -442 0 -456 -1 -475 -20z"/>
<path d="M1023 2835 c-35 -15 -49 -48 -39 -91 13 -51 37 -54 491 -54 457 0
478 2 491 56 9 37 -6 76 -36 91 -38 19 -863 18 -907 -2z"/>
<path d="M1330 2513 c-52 -20 -68 -85 -30 -123 19 -19 33 -20 325 -20 292 0
306 1 325 20 25 25 26 71 1 101 l-19 24 -294 2 c-161 1 -300 -1 -308 -4z"/>
<path d="M3242 4019 c-18 -6 -50 -27 -71 -48 -52 -52 -64 -109 -60 -271 4
-141 15 -169 82 -224 l39 -31 427 0 427 0 36 24 c19 13 46 40 59 59 22 33 24
46 27 181 4 161 -4 202 -45 252 -57 68 -64 69 -498 68 -214 0 -405 -5 -423
-10z m802 -155 c13 -12 16 -39 16 -133 0 -78 -4 -121 -12 -129 -9 -9 -109 -12
-390 -12 -363 0 -378 1 -388 19 -17 32 -13 223 6 249 l15 22 369 0 c322 0 371
-2 384 -16z"/>
<path d="M3181 3144 c-12 -15 -21 -36 -21 -48 0 -27 33 -64 63 -71 12 -3 216
-4 453 -3 408 3 433 4 453 22 27 25 29 86 3 109 -17 15 -64 17 -475 17 l-456
0 -20 -26z"/>
<path d="M3211 2839 c-54 -22 -65 -71 -27 -116 l24 -28 450 0 c428 0 451 1
471 19 29 26 29 86 0 112 -20 18 -44 19 -458 21 -266 1 -445 -2 -460 -8z"/>
<path d="M3205 2508 c-48 -28 -57 -70 -24 -112 l20 -26 309 0 309 0 20 26 c28
36 26 60 -8 95 l-29 29 -289 0 c-198 -1 -294 -4 -308 -12z"/>
</g>
</svg>
