<?xml version="1.0" standalone="no"?>
<!DOCTYPE svg PUBLIC "-//W3C//DTD SVG 20010904//EN"
 "http://www.w3.org/TR/2001/REC-SVG-20010904/DTD/svg10.dtd">
<svg version="1.0" xmlns="http://www.w3.org/2000/svg"
 width="512.000000pt" height="512.000000pt" viewBox="0 0 512.000000 512.000000"
 preserveAspectRatio="xMidYMid meet">

<g transform="translate(0.000000,512.000000) scale(0.100000,-0.100000)"
fill="#000000" stroke="none">
<path d="M544 5097 c-23 -20 -28 -34 -32 -85 l-4 -62 -134 0 c-143 0 -175 -8
-193 -47 -7 -16 -11 -141 -11 -383 l0 -359 24 -28 c24 -28 25 -28 169 -31
l145 -4 4 -59 c3 -44 10 -65 26 -82 21 -21 33 -22 200 -25 114 -3 190 0 215 8
61 18 67 43 67 295 l0 216 88 -3 87 -3 5 -340 c6 -371 6 -374 73 -487 40 -68
81 -105 429 -385 180 -145 332 -272 338 -283 6 -12 10 -187 10 -484 l0 -465
-362 -248 c-199 -136 -377 -262 -394 -280 -17 -17 -45 -58 -60 -90 l-29 -58
-3 -417 -3 -417 -35 -17 c-46 -22 -108 -93 -122 -142 -7 -22 -12 -94 -12 -161
0 -116 1 -123 25 -146 l24 -25 275 0 c291 0 315 3 335 47 8 16 11 187 11 556
l0 533 352 162 c194 89 373 169 398 177 58 21 162 21 220 0 25 -8 204 -88 398
-177 l352 -162 0 -533 c0 -369 3 -540 11 -556 20 -44 44 -47 335 -47 l275 0
24 25 c24 23 25 30 25 146 0 67 -5 139 -12 161 -14 49 -76 120 -122 142 l-35
17 -3 417 -3 417 -29 58 c-15 32 -43 73 -60 90 -17 18 -195 144 -394 280
l-362 249 0 464 c0 297 4 472 10 484 6 11 160 140 343 287 347 280 382 311
424 381 67 112 67 116 73 487 l5 340 88 3 87 3 0 -216 c0 -252 6 -277 67 -295
25 -8 101 -11 215 -8 167 3 179 4 200 25 16 17 23 38 26 82 l4 59 145 4 c144
3 145 3 169 31 l24 28 0 359 c0 242 -4 367 -11 383 -18 39 -50 47 -193 47
l-134 0 -4 62 c-4 51 -9 65 -32 85 -26 22 -32 23 -221 23 -190 0 -194 0 -222
-24 l-28 -24 -3 -231 -3 -231 -94 0 -95 0 -20 39 c-50 100 -180 153 -292 119
-48 -14 -130 -86 -148 -128 l-12 -30 -878 0 -877 0 -18 40 c-37 83 -119 133
-216 133 -54 0 -76 -5 -119 -29 -51 -27 -102 -83 -115 -125 -6 -17 -17 -19
-100 -19 l-94 0 -3 231 -3 231 -28 24 c-28 24 -32 24 -222 24 -189 0 -195 -1
-221 -23z m306 -572 l0 -436 -87 3 -88 3 -3 433 -2 432 90 0 90 0 0 -435z
m3598 3 l-3 -433 -87 -3 -88 -3 0 436 0 435 90 0 90 0 -2 -432z m-3938 2 l0
-260 -90 0 -90 0 0 260 0 260 90 0 90 0 0 -260z m4280 0 l0 -260 -90 0 -90 0
0 260 0 260 90 0 90 0 0 -260z m-3278 63 l23 -25 5 -371 c5 -367 5 -372 28
-404 12 -17 106 -96 207 -174 102 -79 185 -147 185 -152 0 -4 -25 -39 -56 -77
l-56 -69 -201 162 c-134 109 -210 177 -229 207 -55 87 -58 110 -58 510 0 404
0 401 63 418 41 11 60 6 89 -25z m2219 -2 l29 -29 0 -364 c0 -397 -3 -421 -58
-508 -19 -30 -95 -98 -229 -207 l-201 -162 -56 69 c-31 38 -56 73 -56 77 0 5
83 73 185 152 101 78 195 157 207 174 23 32 23 38 28 397 5 386 7 401 53 420
40 16 68 10 98 -19z m-313 -428 l-3 -287 -295 -229 c-396 -306 -378 -290 -386
-335 -9 -51 -28 -85 -64 -116 -106 -89 -258 -27 -284 116 -8 45 11 28 -386
336 l-295 228 -3 287 -2 287 860 0 860 0 -2 -287z m-1221 -871 c19 -14 37 -39
42 -59 33 -119 142 -213 270 -233 155 -25 317 72 366 219 10 32 27 58 48 73
18 13 48 36 68 51 l36 27 52 -65 c28 -36 54 -71 57 -78 2 -8 -32 -42 -84 -84
-69 -55 -95 -84 -116 -124 l-26 -53 0 -463 0 -463 -350 0 -350 0 0 463 0 463
-26 53 c-21 40 -47 69 -116 124 -52 42 -86 76 -84 84 3 7 29 42 57 78 l52 65
36 -27 c20 -15 51 -38 68 -51z m886 -1493 c64 -44 117 -84 117 -90 0 -12 -150
-219 -159 -219 -4 0 -70 29 -147 64 -191 87 -233 99 -334 99 -101 0 -143 -12
-334 -99 -77 -35 -143 -64 -147 -64 -9 0 -159 207 -159 219 0 6 53 46 118 90
l117 81 405 0 405 0 118 -81z m-1233 -275 c34 -48 64 -92 66 -99 3 -7 -49 -36
-133 -75 -173 -78 -199 -95 -223 -146 -19 -38 -20 -61 -20 -372 l0 -332 -90 0
-90 0 0 393 c0 387 1 392 23 431 17 31 64 69 207 167 102 70 188 125 191 123
4 -2 35 -43 69 -90z m1823 -132 c88 -64 87 -55 87 -502 l0 -390 -90 0 -90 0 0
332 c0 435 16 400 -242 518 -76 35 -138 66 -138 70 0 6 14 26 103 148 l38 53
142 -97 c78 -53 164 -113 190 -132z m-2133 -1142 l0 -90 -175 0 -175 0 0 64
c0 55 3 67 26 90 26 26 28 26 175 26 l149 0 0 -90z m2364 64 c23 -23 26 -35
26 -90 l0 -64 -175 0 -175 0 0 90 0 90 149 0 c147 0 149 0 175 -26z"/>
<path d="M2379 4334 c-105 -32 -200 -128 -227 -230 -7 -24 -12 -107 -12 -183
0 -162 17 -232 75 -316 197 -287 642 -219 746 114 17 55 19 93 19 322 l0 260
-25 24 -24 25 -253 -1 c-189 0 -265 -4 -299 -15z m441 -346 c0 -192 -1 -206
-24 -254 -40 -86 -144 -154 -236 -154 -92 0 -196 68 -236 154 -21 46 -24 65
-24 184 0 142 9 180 51 219 54 49 72 53 277 53 l192 0 0 -202z"/>
</g>
</svg>
