<?xml version="1.0" standalone="no"?>
<!DOCTYPE svg PUBLIC "-//W3C//DTD SVG 20010904//EN"
 "http://www.w3.org/TR/2001/REC-SVG-20010904/DTD/svg10.dtd">
<svg version="1.0" xmlns="http://www.w3.org/2000/svg"
 width="512.000000pt" height="512.000000pt" viewBox="0 0 512.000000 512.000000"
 preserveAspectRatio="xMidYMid meet">

<g transform="translate(0.000000,512.000000) scale(0.100000,-0.100000)"
fill="#000000" stroke="none">
<path d="M4230 4220 c-25 -12 -54 -29 -65 -39 -11 -10 -38 -22 -60 -26 -96
-16 -194 -86 -236 -167 -24 -47 -109 -287 -109 -308 0 -9 18 -61 40 -115 38
-94 40 -103 40 -207 0 -102 1 -110 25 -133 22 -23 32 -25 120 -25 l95 0 0 -45
c0 -51 27 -42 -240 -80 -198 -29 -255 -49 -315 -117 -72 -79 -79 -108 -85
-338 l-5 -206 -85 -142 -84 -142 -421 419 c-458 456 -464 461 -602 484 -118
21 -258 -21 -347 -103 -25 -23 -205 -265 -400 -539 l-355 -496 -107 -70 c-104
-68 -111 -71 -273 -112 -204 -51 -201 -49 -201 -178 l0 -93 -112 -4 c-90 -3
-121 -8 -153 -25 -107 -57 -157 -172 -123 -287 16 -55 99 -138 154 -154 32 -9
542 -12 2236 -12 2475 0 2252 -8 2331 80 68 76 85 165 46 250 -25 55 -62 95
-114 123 -39 22 -51 22 -584 27 l-544 5 313 370 c172 204 340 405 371 448 73
97 153 245 225 416 100 238 105 331 34 614 -24 92 -40 170 -37 173 3 4 27 -1
53 -10 78 -26 91 -22 161 47 l63 64 0 147 c0 83 -5 156 -10 167 -6 10 -48 38
-93 60 -66 33 -103 62 -192 149 -60 59 -126 115 -145 125 -55 28 -155 30 -210
5z m249 -254 c83 -82 134 -123 179 -145 l62 -31 0 -78 c0 -45 -5 -83 -11 -89
-20 -20 -60 5 -150 93 -94 91 -116 100 -163 63 -19 -15 -26 -30 -26 -56 0 -19
34 -166 76 -327 82 -311 95 -398 74 -487 -16 -65 -75 -210 -137 -336 l-46 -93
-71 0 c-94 0 -162 32 -204 95 -42 63 -46 110 -22 213 41 175 33 160 97 168 39
5 64 14 80 30 l23 23 0 509 0 509 26 27 c19 18 37 26 62 26 31 0 48 -12 151
-114z m-399 -38 l0 -52 -31 30 -30 29 26 22 c14 13 28 23 31 23 2 0 4 -23 4
-52z m0 -425 l0 -143 -40 0 -40 0 0 67 c0 54 -7 86 -36 160 -35 88 -36 94 -24
138 l13 46 64 -62 63 -63 0 -143z m-193 -660 c-43 -161 -19 -294 70 -393 56
-63 119 -100 201 -120 l64 -16 -323 -383 c-306 -361 -324 -381 -331 -354 -50
210 -85 298 -154 388 l-35 46 108 177 108 177 5 217 c5 236 7 243 71 291 23
17 145 43 210 46 l27 1 -21 -77z m-1597 9 c33 -15 180 -156 526 -504 478 -480
482 -484 522 -568 38 -80 62 -168 78 -287 l7 -53 -211 0 -211 0 -397 555
c-303 424 -402 557 -422 562 -55 14 -70 -3 -199 -217 l-123 -205 -210 -210
-210 -210 -65 65 c-36 36 -63 71 -60 78 2 7 155 224 340 481 343 481 354 494
444 528 49 18 137 12 191 -15z m194 -969 l315 -443 -664 0 -664 0 20 58 c18
52 38 76 258 297 238 240 239 240 326 388 48 81 89 146 90 145 2 -2 145 -202
319 -445z m-1213 -229 l77 -76 -22 -67 -23 -66 -291 -3 -292 -2 0 49 0 49 136
33 c127 32 142 38 228 96 50 34 95 62 101 62 5 1 44 -33 86 -75z m3504 -399
c33 -32 33 -78 0 -110 l-24 -25 -2191 0 -2191 0 -24 25 c-16 15 -25 36 -25 55
0 19 9 40 25 55 l24 25 2191 0 2191 0 24 -25z"/>
<path d="M4747 2298 c-14 -13 -79 -87 -146 -166 -133 -157 -143 -181 -96 -227
31 -32 76 -33 108 -2 14 12 79 86 146 165 133 157 143 181 96 227 -31 32 -76
33 -108 3z"/>
<path d="M4300 1780 c-69 -81 -76 -114 -35 -155 40 -41 80 -34 133 23 87 92
100 135 57 177 -16 17 -35 25 -59 25 -31 0 -42 -8 -96 -70z"/>
</g>
</svg>
