<?xml version="1.0" standalone="no"?>
<!DOCTYPE svg PUBLIC "-//W3C//DTD SVG 20010904//EN"
 "http://www.w3.org/TR/2001/REC-SVG-20010904/DTD/svg10.dtd">
<svg version="1.0" xmlns="http://www.w3.org/2000/svg"
 width="895.000000pt" height="461.000000pt" viewBox="0 0 895.000000 461.000000"
 preserveAspectRatio="xMidYMid meet">

<g transform="translate(0.000000,461.000000) scale(0.100000,-0.100000)"
fill="#000000" stroke="none">
<path d="M1103 4476 c-342 -78 -701 -558 -872 -1167 -66 -235 -85 -358 -85
-554 -1 -132 3 -185 17 -235 57 -212 183 -339 384 -386 95 -22 327 -15 435 14
232 63 429 198 603 415 99 124 185 305 185 390 0 104 -167 128 -270 40 -57
-49 -86 -98 -121 -205 -56 -172 -130 -276 -263 -369 -91 -64 -183 -93 -274
-87 -121 9 -192 66 -234 188 -20 57 -23 85 -23 220 0 177 17 294 75 535 115
480 279 793 463 887 44 22 131 34 172 24 37 -9 59 -65 51 -128 -4 -26 -23 -98
-42 -160 -44 -140 -55 -257 -30 -310 26 -54 82 -80 172 -80 161 0 246 82 310
299 30 102 43 274 25 338 -19 73 -60 122 -131 159 -37 20 -97 60 -136 90 -38
31 -89 63 -114 72 -63 22 -220 27 -297 10z"/>
<path d="M4974 4426 c-43 -36 -80 -125 -120 -289 -19 -78 -44 -169 -55 -203
l-20 -61 -157 -6 c-179 -6 -233 -21 -257 -68 -45 -86 11 -123 240 -159 39 -6
77 -15 84 -20 12 -7 3 -49 -49 -237 -150 -544 -162 -595 -167 -748 -5 -121 -3
-152 16 -224 34 -136 94 -221 189 -268 50 -24 69 -28 148 -28 84 0 95 3 165
37 91 46 185 129 264 236 l60 82 29 -63 c36 -76 131 -174 205 -211 116 -59
304 -85 412 -56 191 51 384 252 479 499 39 101 44 108 97 146 31 22 96 79 144
127 49 48 89 85 89 82 0 -3 -20 -85 -44 -182 -58 -231 -94 -407 -102 -509 -6
-78 -6 -82 19 -107 36 -35 126 -60 220 -59 110 1 120 10 168 153 40 120 191
436 254 530 20 30 34 48 32 39 -3 -8 -22 -87 -43 -175 -30 -128 -37 -180 -38
-265 -1 -117 6 -133 69 -167 44 -23 186 -22 247 1 44 17 49 23 65 70 40 117
305 618 319 604 3 -3 -4 -40 -15 -83 -64 -258 -71 -441 -20 -550 74 -156 278
-196 487 -93 180 88 379 345 427 551 14 62 7 114 -17 130 -7 4 -32 8 -55 8
-60 0 -100 -38 -143 -137 -73 -168 -173 -313 -241 -348 -15 -8 -41 -15 -58
-15 -25 0 -31 5 -42 37 -43 131 100 642 225 807 58 75 42 144 -50 207 -72 49
-119 62 -227 62 -82 1 -101 -2 -124 -20 -32 -23 -129 -166 -285 -416 -61 -98
-112 -176 -114 -175 -1 2 17 88 42 192 24 103 44 196 44 206 0 28 -67 77 -123
91 -57 13 -182 8 -215 -10 -25 -13 -115 -147 -201 -296 -28 -49 -51 -83 -51
-75 0 8 27 132 60 275 33 143 60 267 60 277 0 19 -74 50 -179 75 -99 23 -190
6 -206 -37 -4 -8 -13 -51 -21 -95 -8 -44 -21 -103 -29 -131 -14 -48 -16 -50
-45 -46 -68 10 -109 -21 -186 -141 -89 -137 -82 -144 -80 77 l1 194 -50 73
c-69 102 -178 209 -246 242 -138 68 -314 34 -445 -85 -133 -122 -320 -410
-405 -623 -20 -51 -43 -91 -65 -111 -21 -20 -59 -84 -107 -186 -84 -175 -134
-254 -200 -315 -71 -66 -123 -69 -153 -10 -14 25 -16 51 -11 132 4 80 22 168
92 445 95 380 152 589 167 607 24 30 346 51 458 29 42 -7 49 -6 78 19 41 35
45 93 8 130 -36 36 -86 46 -281 55 -99 5 -182 9 -184 9 -12 3 16 113 70 275
33 102 59 193 57 203 -7 36 -152 92 -284 109 -44 5 -54 3 -80 -20z m1219 -907
c38 -17 50 -55 55 -169 4 -103 -17 -269 -51 -404 -12 -48 -14 -50 -67 -69 -36
-13 -84 -20 -137 -21 -93 -1 -124 14 -156 75 -23 42 -17 140 14 232 46 137
167 304 252 346 48 24 57 25 90 10z m-323 -916 c55 -3 95 1 150 15 41 11 77
18 79 16 7 -6 -52 -98 -90 -139 -73 -79 -199 -124 -259 -93 -45 24 -70 74 -70
142 0 34 3 71 6 82 l6 21 51 -19 c29 -11 86 -22 127 -25z"/>
<path d="M2055 3631 c-44 -19 -40 -6 -171 -580 -123 -542 -126 -690 -16 -800
61 -61 133 -85 257 -85 83 -1 96 2 159 33 84 41 174 127 242 232 l50 76 27
-58 c19 -41 40 -67 66 -85 47 -31 121 -54 171 -54 l36 0 -37 -148 c-21 -81
-46 -172 -56 -202 l-19 -55 -150 -6 c-174 -8 -225 -19 -254 -56 -28 -36 -24
-90 10 -114 26 -20 109 -41 225 -59 39 -6 76 -15 83 -19 14 -9 9 -28 -89 -369
-67 -231 -116 -446 -129 -562 -25 -228 38 -435 160 -523 96 -69 238 -76 356
-17 77 38 199 148 274 249 144 193 270 489 232 548 -24 37 -114 33 -157 -7
-13 -12 -61 -99 -108 -193 -124 -250 -203 -348 -283 -351 -89 -3 -100 109 -39
384 44 198 98 412 167 657 49 179 51 182 82 192 61 20 239 34 330 26 159 -13
166 -12 192 19 51 58 19 129 -68 156 -24 7 -123 16 -221 20 -98 4 -180 10
-184 13 -7 8 15 89 73 269 l45 137 52 -24 c98 -45 179 -59 347 -59 346 1 550
105 550 279 0 76 -51 148 -203 284 -163 146 -192 177 -218 235 -24 55 -21 103
11 165 40 79 142 143 204 127 16 -4 35 -23 51 -50 42 -73 58 -82 111 -68 122
33 264 196 264 304 0 39 -5 50 -30 71 -32 28 -106 47 -177 47 -72 0 -246 -29
-341 -56 -434 -126 -614 -376 -475 -660 37 -75 115 -159 238 -254 57 -44 116
-97 130 -117 42 -62 31 -122 -26 -142 -82 -28 -160 -2 -240 83 -86 91 -142
109 -248 80 -22 -6 -23 -5 -16 24 9 42 -8 69 -50 81 -57 16 -100 -3 -181 -80
-42 -40 -82 -69 -94 -69 -73 0 -43 290 66 639 69 219 75 267 43 305 -30 34
-78 45 -201 46 -117 0 -190 -14 -225 -44 -23 -20 -25 -28 -24 -98 1 -88 -57
-336 -136 -581 -77 -239 -140 -337 -218 -337 -30 0 -35 4 -45 36 -22 67 -1
197 116 704 41 178 74 335 72 349 -4 33 -53 65 -134 91 -73 22 -200 34 -229
21z"/>
<path d="M3890 1992 c-67 -19 -144 -54 -155 -72 -8 -13 46 -108 85 -150 73
-78 220 -99 332 -48 75 35 85 55 58 114 -11 26 -20 52 -20 59 0 6 -16 28 -35
48 -57 59 -159 78 -265 49z"/>
<path d="M7748 1741 c-67 -22 -118 -52 -135 -80 -7 -11 -27 -96 -44 -188 -64
-349 -99 -479 -178 -653 -68 -150 -120 -229 -195 -298 -82 -75 -151 -105 -250
-110 -72 -3 -85 -1 -115 20 -60 41 -75 71 -79 153 -6 106 1 125 41 125 54 0
158 29 221 61 241 122 436 420 436 663 0 94 -17 143 -66 192 -100 101 -304
108 -477 17 -88 -47 -238 -191 -315 -305 -59 -86 -148 -260 -182 -355 -21 -59
-25 -63 -54 -63 -50 0 -81 -36 -156 -187 -107 -215 -193 -313 -273 -313 -42 0
-50 29 -44 154 9 208 119 541 229 698 l41 58 -17 45 c-22 56 -81 108 -155 137
-63 24 -214 30 -262 10 -28 -11 -154 -192 -314 -450 -48 -78 -90 -140 -92
-138 -3 3 14 88 38 191 50 217 49 226 -26 264 -42 22 -63 26 -140 26 -49 0
-102 -3 -117 -8 -30 -8 -107 -116 -203 -286 -32 -56 -59 -100 -61 -98 -2 2 21
111 52 243 30 131 58 260 61 286 6 46 5 47 -33 63 -69 29 -207 57 -253 52 -75
-8 -94 -30 -113 -138 -10 -52 -41 -186 -71 -299 l-53 -204 -39 -8 c-22 -5 -50
-18 -63 -30 -12 -12 -56 -90 -96 -174 -57 -116 -87 -165 -131 -212 -81 -87
-165 -109 -193 -50 -36 75 107 647 208 836 46 85 49 114 16 147 -70 70 -355
81 -428 17 -14 -12 -18 -31 -18 -90 0 -57 -15 -139 -64 -346 -100 -423 -99
-416 -94 -530 7 -147 44 -214 148 -267 55 -28 187 -37 273 -19 95 19 207 82
288 161 40 38 73 68 74 67 2 -2 -3 -37 -11 -78 -20 -111 -18 -203 4 -222 50
-45 167 -73 253 -62 72 10 101 40 129 132 42 144 210 496 275 577 l16 20 -5
-20 c-19 -70 -58 -256 -71 -340 -35 -214 6 -270 196 -269 130 1 154 16 196
124 52 136 287 579 300 566 3 -2 -6 -53 -21 -113 -82 -349 -51 -559 93 -633
103 -52 250 -46 378 15 84 41 210 155 281 254 l46 65 13 -63 c17 -84 56 -153
119 -210 63 -57 135 -87 249 -101 369 -46 719 200 898 631 24 57 72 185 107
284 35 99 68 186 73 193 14 18 106 16 114 -3 3 -9 -20 -107 -51 -218 -80 -287
-98 -387 -100 -542 -1 -148 14 -212 67 -271 81 -93 227 -106 377 -32 172 84
366 366 424 619 23 95 -4 139 -86 139 -48 0 -83 -48 -157 -215 -36 -82 -89
-188 -116 -234 -50 -83 -122 -161 -149 -161 -33 0 -46 30 -46 102 0 185 101
502 244 768 47 85 69 155 62 186 -11 43 -77 64 -234 76 -214 15 -220 19 -188
115 17 49 20 101 8 119 -25 38 -121 44 -214 15z m-577 -327 c32 -39 -46 -243
-135 -356 -25 -31 -64 -70 -88 -86 -45 -31 -115 -58 -125 -48 -10 10 57 188
110 291 63 123 146 215 194 215 17 0 36 -7 44 -16z"/>
</g>
</svg>
