<?xml version="1.0" standalone="no"?>
<!DOCTYPE svg PUBLIC "-//W3C//DTD SVG 20010904//EN"
 "http://www.w3.org/TR/2001/REC-SVG-20010904/DTD/svg10.dtd">
<svg version="1.0" xmlns="http://www.w3.org/2000/svg"
 width="512.000000pt" height="512.000000pt" viewBox="0 0 512.000000 512.000000"
 preserveAspectRatio="xMidYMid meet">

<g transform="translate(0.000000,512.000000) scale(0.100000,-0.100000)"
fill="#000000" stroke="none">
<path d="M1570 5064 c-192 -41 -350 -195 -395 -385 -10 -45 -15 -120 -15 -250
0 -167 -2 -191 -21 -233 -18 -42 -20 -63 -17 -176 3 -124 4 -130 33 -172 22
-30 49 -52 92 -73 60 -29 61 -31 73 -85 22 -103 77 -198 163 -285 l80 -80 -11
-54 c-12 -57 -45 -101 -92 -126 -14 -7 -63 -20 -110 -30 -174 -34 -220 -58
-220 -114 0 -31 37 -71 65 -71 17 0 58 9 254 55 l54 13 59 -40 c152 -104 355
-140 537 -96 61 14 178 68 235 108 26 17 50 29 54 26 4 -2 61 -16 127 -31 204
-46 326 -108 456 -232 74 -71 167 -198 184 -252 7 -22 5 -24 -23 -18 -17 3
-97 11 -179 17 -366 27 -688 -47 -944 -216 l-67 -44 -68 46 c-99 66 -172 101
-304 144 -235 77 -512 96 -813 54 l-49 -7 25 49 c35 70 108 165 177 233 48 47
60 66 60 90 0 40 -31 71 -71 71 -80 0 -268 -229 -340 -415 -22 -57 -27 -62
-73 -80 -36 -15 -59 -32 -80 -63 -30 -42 -30 -45 -34 -197 l-4 -155 -102 0
c-118 0 -163 -11 -207 -47 -51 -43 -59 -76 -59 -233 0 -157 8 -190 59 -233 43
-35 89 -47 194 -47 l87 0 0 -619 c0 -434 3 -628 11 -652 16 -47 66 -97 109
-109 48 -14 4152 -14 4199 0 48 13 97 64 110 113 8 29 11 157 9 420 l-3 379
-24 19 c-28 22 -69 25 -97 5 -18 -14 -19 -33 -24 -403 l-5 -388 -87 -3 -88 -3
0 621 0 620 90 0 90 0 0 -93 c0 -102 8 -119 61 -132 20 -5 33 0 55 18 27 24
29 30 32 116 l4 91 91 0 c137 1 192 26 228 105 15 33 19 65 19 175 0 110 -4
142 -19 175 -33 72 -91 104 -192 105 l-56 0 -6 54 c-12 122 -101 214 -224 234
l-49 7 141 397 c123 349 143 398 161 398 54 0 124 32 168 75 113 113 96 293
-37 382 -71 48 -140 53 -252 19 -19 -6 -61 29 -373 316 l-43 40 46 49 c61 65
78 108 79 194 0 61 -5 79 -37 143 -44 86 -96 145 -151 175 -33 17 -58 22 -126
22 l-85 0 -115 -63 c-108 -60 -117 -63 -145 -51 -143 57 -169 63 -280 63 -166
0 -271 -39 -302 -111 -12 -30 -13 -44 -4 -73 6 -19 116 -224 244 -455 255
-460 264 -472 340 -462 79 11 208 140 264 267 14 30 31 84 38 119 14 64 18 70
65 95 24 14 31 9 245 -185 145 -132 219 -206 217 -217 -19 -125 -8 -181 49
-254 l32 -40 -37 -107 c-20 -58 -87 -248 -149 -421 l-112 -315 -175 -5 c-157
-4 -180 -7 -222 -28 -84 -42 -148 -142 -148 -234 l0 -28 -180 0 -180 0 0 145
c0 100 -4 156 -14 178 -18 43 -78 95 -120 102 -29 6 -36 13 -51 53 -27 74 -91
188 -141 253 -165 215 -386 345 -675 398 -91 17 -139 46 -166 101 -40 77 -33
99 50 182 84 83 148 197 168 297 9 49 15 60 35 65 13 4 39 20 58 36 63 56 65
66 65 485 1 251 -3 392 -11 423 -15 61 -78 126 -138 142 -25 7 -51 14 -57 16
-7 2 -13 15 -13 29 0 68 -78 155 -156 174 -67 17 -692 13 -774 -5z m759 -151
c13 -11 24 -35 28 -58 3 -22 14 -54 25 -72 21 -35 89 -73 131 -73 52 0 58 -25
55 -256 l-3 -209 -30 -3 c-26 -2 -36 4 -64 39 -50 62 -87 74 -183 58 -163 -26
-306 24 -449 157 -114 107 -175 130 -272 103 -47 -13 -115 -72 -134 -116 -8
-21 -13 -74 -13 -153 0 -136 6 -129 -77 -94 l-33 13 0 180 c0 199 13 268 65
339 56 75 146 135 229 152 22 4 190 8 372 9 302 1 334 -1 353 -16z m-643 -484
c59 -62 177 -149 249 -184 118 -57 258 -78 371 -56 39 7 43 6 68 -26 36 -44
95 -73 151 -73 l45 0 0 -85 c0 -92 2 -89 -61 -99 -60 -10 -70 -24 -85 -121
-28 -173 -117 -296 -266 -369 -144 -71 -297 -70 -439 1 -149 74 -236 195 -263
363 -16 99 -34 120 -100 120 -69 0 -86 24 -86 121 0 73 2 80 18 74 128 -52
180 -54 233 -7 39 35 48 79 49 224 0 109 1 118 22 132 34 24 61 19 94 -15z
m2534 -101 c20 -14 47 -49 68 -90 38 -74 39 -114 1 -161 -24 -32 -168 -113
-178 -101 -4 5 -13 29 -20 54 -18 61 -52 127 -96 185 -42 55 -48 45 60 102 72
39 119 42 165 11z m-611 -38 c83 -16 161 -58 226 -124 139 -140 172 -337 86
-510 -39 -78 -109 -153 -126 -134 -12 14 -399 712 -410 740 -12 31 123 47 224
28z m1310 -874 c30 -16 51 -53 51 -92 0 -38 -59 -94 -100 -94 -43 0 -100 56
-100 97 1 79 78 125 149 89z m-3099 -191 c86 -19 202 -15 288 10 57 17 72 14
72 -15 0 -10 14 -44 30 -75 35 -67 35 -68 -66 -109 -160 -65 -327 -54 -470 29
l-43 25 25 38 c14 20 31 56 37 80 10 36 15 43 32 39 11 -3 54 -13 95 -22z
m-520 -906 c182 -25 358 -90 501 -184 l69 -47 0 -49 0 -49 -675 0 -675 0 0
128 c0 70 4 132 8 138 13 22 256 65 437 78 70 5 246 -3 335 -15z m1805 -5 c61
-8 142 -23 180 -32 l70 -17 3 -137 3 -138 -671 0 -671 0 3 52 c3 50 5 52 58
89 255 177 608 240 1025 183z m1535 -199 c33 -17 60 -61 60 -100 l0 -25 -340
0 -340 0 0 25 c0 37 26 82 58 99 40 22 520 23 562 1z m318 -283 c9 -7 12 -39
10 -128 l-3 -119 -2405 0 -2405 0 -3 114 c-1 63 0 121 2 128 4 11 434 13 2398
13 1316 0 2399 -4 2406 -8z m-4288 -1022 l0 -621 -87 3 -88 3 -3 618 -2 617
90 0 90 0 0 -620z m3630 0 l0 -620 -1740 0 -1740 0 0 620 0 620 1740 0 1740 0
0 -620z"/>
</g>
</svg>
