<?xml version="1.0" standalone="no"?>
<!DOCTYPE svg PUBLIC "-//W3C//DTD SVG 20010904//EN"
 "http://www.w3.org/TR/2001/REC-SVG-20010904/DTD/svg10.dtd">
<svg version="1.0" xmlns="http://www.w3.org/2000/svg"
 width="512.000000pt" height="512.000000pt" viewBox="0 0 512.000000 512.000000"
 preserveAspectRatio="xMidYMid meet">

<g transform="translate(0.000000,512.000000) scale(0.100000,-0.100000)"
fill="#000000" stroke="none">
<path d="M2477 5110 c-161 -41 -274 -199 -265 -371 l3 -53 -46 -26 c-133 -74
-248 -197 -319 -345 -51 -104 -69 -184 -77 -327 l-6 -117 31 -30 c27 -28 37
-31 91 -31 l61 0 0 -90 c0 -117 13 -177 62 -279 75 -157 229 -282 403 -326 76
-19 214 -19 290 0 219 56 394 231 450 450 8 32 15 101 15 152 l0 93 67 -1 c62
-2 69 0 91 27 24 28 25 31 19 149 -7 146 -26 225 -77 330 -71 148 -186 271
-319 345 l-46 26 3 53 c8 151 -77 292 -213 352 -53 23 -162 33 -218 19z m156
-174 c61 -26 107 -93 107 -157 l0 -30 -77 8 c-43 4 -89 7 -103 7 -14 0 -60 -3
-102 -7 l-78 -8 0 30 c0 63 45 130 105 157 39 17 107 18 148 0z m117 -366
c100 -33 168 -77 251 -159 60 -60 85 -94 117 -161 42 -88 66 -182 60 -237 l-3
-32 -65 31 c-48 23 -89 55 -158 124 -112 112 -115 113 -240 50 -212 -106 -445
-171 -714 -200 l-58 -6 0 39 c0 68 20 143 62 231 70 146 213 270 368 319 93
29 104 30 215 26 68 -2 121 -10 165 -25z m113 -586 c34 -30 81 -67 105 -82
l44 -27 -5 -125 c-8 -177 -40 -261 -133 -354 -86 -87 -190 -129 -314 -129
-124 0 -228 42 -314 129 -89 88 -123 175 -133 331 -6 102 -6 102 18 107 13 3
73 14 134 26 131 25 353 96 450 144 39 19 74 35 78 35 5 1 36 -24 70 -55z"/>
<path d="M1955 3079 c-274 -27 -519 -235 -590 -502 -9 -34 -40 -241 -69 -460
l-53 -399 -253 -253 -254 -254 -39 36 c-53 48 -98 64 -174 64 -146 0 -262 -79
-319 -219 -49 -120 -24 -257 66 -355 53 -58 109 -90 188 -108 29 -7 51 -15 49
-18 -2 -3 -13 -27 -25 -53 -107 -226 32 -501 278 -548 72 -14 3528 -14 3600 0
246 47 385 322 278 548 -12 26 -23 50 -25 53 -2 3 21 11 50 18 107 24 197 94
244 190 38 78 44 193 13 275 -42 111 -146 196 -264 214 -95 15 -170 -5 -234
-62 l-38 -35 -255 257 -256 257 -52 405 c-64 495 -81 555 -194 695 -127 157
-320 254 -508 256 -103 1 -144 -21 -182 -96 -11 -22 -16 -72 -19 -180 -3 -143
-5 -153 -34 -215 -64 -132 -183 -210 -324 -210 -141 0 -261 78 -323 210 -30
62 -32 73 -37 220 -4 131 -8 160 -25 189 -42 71 -99 92 -220 80z m75 -236 c0
-223 46 -359 157 -470 109 -109 224 -158 373 -158 149 0 264 49 373 158 111
111 157 247 157 470 l0 79 53 -7 c28 -4 69 -12 90 -18 37 -10 38 -11 32 -51
-36 -257 -155 -1336 -155 -1404 0 -77 9 -128 65 -353 36 -145 68 -272 71 -281
5 -17 -32 -18 -686 -18 -654 0 -691 1 -686 18 3 9 35 136 71 281 56 225 65
276 65 353 0 68 -119 1148 -155 1404 l-6 41 43 11 c47 13 81 19 116 21 21 1
22 -2 22 -76z m-306 -297 l28 -243 -67 -334 c-43 -213 -76 -356 -93 -394 -23
-54 -65 -99 -386 -423 l-361 -363 -196 3 -196 3 -36 28 c-92 70 -98 189 -13
273 79 80 193 67 211 -23 16 -75 63 -114 114 -93 15 6 172 156 348 333 272
273 322 327 327 357 4 19 29 205 56 413 60 452 62 463 107 549 33 63 106 158
122 158 3 0 19 -110 35 -244z m1754 199 c51 -58 107 -165 121 -232 6 -28 33
-222 61 -430 27 -208 52 -394 56 -413 5 -30 55 -84 327 -357 176 -177 333
-327 348 -333 51 -21 98 18 114 93 16 78 113 100 196 44 79 -53 99 -170 43
-249 -51 -72 -72 -78 -284 -78 l-186 0 -360 363 c-322 323 -363 368 -386 422
-17 38 -50 181 -93 394 l-67 334 28 243 c16 134 32 244 35 244 4 0 25 -20 47
-45z m-1636 -1280 c1 -104 -2 -123 -61 -355 -34 -135 -66 -262 -72 -282 l-10
-38 -306 0 -307 0 300 302 c283 285 303 308 342 386 25 50 50 122 64 184 l23
102 13 -94 c7 -52 13 -144 14 -205z m1554 4 c34 -65 74 -110 338 -377 l300
-302 -307 0 -306 0 -10 38 c-137 514 -149 590 -122 816 l15 119 27 -111 c16
-64 43 -141 65 -183z m-1975 -915 c10 -101 72 -185 160 -216 19 -7 166 -42
328 -78 178 -39 296 -70 299 -78 3 -10 -141 -12 -725 -10 l-728 3 -47 32
c-121 85 -131 260 -20 354 68 56 77 58 417 56 l310 -2 6 -61z m789 -62 l0
-129 -280 63 c-154 34 -292 69 -306 78 -27 18 -44 53 -44 92 l0 24 315 0 315
0 0 -128z m2141 116 c52 -15 117 -73 140 -122 43 -96 8 -218 -79 -279 l-47
-32 -992 -3 -993 -2 0 225 0 225 966 0 c705 0 977 -3 1005 -12z"/>
</g>
</svg>
